<svg xmlns="http://www.w3.org/2000/svg" xmlns:xlink="http://www.w3.org/1999/xlink" version="1.1" id="Layer_1" x="0px" y="0px" style="enable-background:new 0 0 1000 1000;" xml:space="preserve" viewBox="201.07 441.2 597.9 118">
<style type="text/css">
	.st0{fill:#333333;fill-opacity:0;}
	.st1{fill:#7D5F92;}
	.st2{fill:#00ADA8;}
	.st3{fill:#D72F5A;}
	.st4{fill:#E88733;}
	.st5{fill:#70B0BE;}
</style>
<g transform="translate(68.37113952636719,104.99973106384277)">
	<g>
		<g transform="matrix(1,0,0,1,0,0)">
			<g transform="scale(1)">
				<g transform="translate(0, 0)">
					<g>
						<g>
							<rect x="132.7" y="336.2" class="st0" width="100.3" height="117.6"/>
							<path class="st1" d="M146.2,454c-7.4,0-13.4-6-13.5-13.4c0-0.1,0-0.2,0-0.3V350c0-7.4,6-13.4,13.4-13.4         c7.4,0,13.4,6,13.4,13.4v90.3c0.2,7.4-5.7,13.6-13.1,13.8C146.4,454,146.3,454,146.2,454z"/>
							<path class="st2" d="M219.4,408.4c-7.3,0-13.3-5.9-13.4-13.2c0.1-16.5-12.4-30.2-28.8-31.8h-30.6c-7.4,0-13.4-6-13.4-13.4         c0-7.4,6-13.4,13.4-13.4c0,0,30.3-0.2,32.5-0.2c30.5,2.6,54,28.2,53.9,58.8C232.8,402.5,226.8,408.4,219.4,408.4z"/>
							<path class="st3" d="M146.6,454c-7.4,0-13.4-6-13.5-13.4c0-7.4,6-13.4,13.4-13.5c0,0,0,0,0,0h30.3         c16.6-1.4,29.3-15.3,29.1-31.9c0.6-7.4,7.1-13,14.6-12.4c6.6,0.5,11.9,5.8,12.4,12.4c0.1,30.8-23.6,56.5-54.4,58.8H146.6z"/>
						</g>
					</g>
				</g>
				<g transform="translate(34.08726868716181, 0)">
					<g>
						<g>
							<rect x="198.9" y="336.2" class="st0" width="116.1" height="117.6"/>
							<path class="st4" d="M293,436.7h-72.2c-7.4,0-13.5-6-13.5-13.5c0-7.4,6-13.5,13.5-13.5c0,0,0,0,0,0H293         c7.4,0,13.5,6,13.5,13.5C306.4,430.6,300.4,436.7,293,436.7z"/>
							<path class="st1" d="M212.3,454.1c-2,0-4.1-0.5-5.9-1.4c-6.7-3.2-9.5-11.2-6.3-17.8c0-0.1,0.1-0.1,0.1-0.2l44.3-90.7         c3.3-6.7,11.4-9.5,18-6.2c6.7,3.3,9.5,11.4,6.2,18l-44.7,90.3C222,450.8,217.5,453.9,212.3,454.1z"/>
							<path class="st5" d="M301.6,454.1c-5.1,0-9.8-2.9-12.1-7.6l-44.3-90.7c-3.3-6.7-0.5-14.8,6.2-18c6.7-3.3,14.8-0.5,18,6.2         l44.3,90.3c3.3,6.6,0.6,14.6-6.1,17.9c-0.1,0-0.1,0.1-0.2,0.1C305.7,453.3,303.7,453.9,301.6,454.1z"/>
						</g>
					</g>
				</g>
				<g transform="translate(73.57728043852346, 0)">
					<g>
						<g>
							<rect x="275.5" y="336.2" class="st0" width="102.6" height="117.6"/>
							<path class="st3" d="M289,453.9c-7.4,0-13.4-6-13.4-13.4c0-0.1,0-0.3,0-0.4v-90.2c0-7.4,6-13.4,13.4-13.4         c7.4,0,13.4,6,13.4,13.4v90.2c0.2,7.4-5.6,13.6-13,13.8C289.2,453.9,289.1,453.9,289,453.9z"/>
							<path class="st1" d="M364.7,453.9c-7.4,0.1-13.5-5.7-13.7-13.2c0-0.2,0-0.5,0-0.7v-90.2c0-7.4,6-13.4,13.4-13.4         s13.4,6,13.4,13.4c0,0,0,0,0,0v90.2c0.2,7.4-5.6,13.6-13,13.8C364.8,453.9,364.8,453.9,364.7,453.9z"/>
							<path class="st5" d="M364.7,453.9c-4,0-7.7-1.8-10.3-4.8l-75.6-90.3c-4.8-5.7-4-14.1,1.6-18.9c5.7-4.8,14.1-4,18.9,1.6         l75.5,89.9c4.8,5.7,4,14.1-1.6,18.9C370.8,452.4,367.9,453.7,364.7,453.9z"/>
						</g>
					</g>
				</g>
				<g transform="translate(108.4510244675418, 0)">
					<g>
						<g>
							<rect x="343.2" y="336.2" class="st0" width="26.9" height="117.6"/>
							<path class="st3" d="M356.7,454.1c-7.4,0-13.5-6-13.5-13.4c0-0.1,0-0.3,0-0.4v-90.4c0-7.4,6-13.5,13.5-13.4         c7.4,0,13.4,6,13.4,13.4v90.4c0.2,7.4-5.6,13.6-13,13.9C357,454.1,356.8,454.1,356.7,454.1z"/>
						</g>
					</g>
				</g>
				<g transform="translate(117.59834704411077, 0)">
					<g>
						<g>
							<rect x="361" y="336.2" class="st0" width="84" height="117.6"/>
							<path class="st2" d="M374.5,454.1c-7.4,0-13.5-6-13.5-13.4c0-0.1,0-0.3,0-0.4v-90.4c0-7.4,6-13.5,13.5-13.4         c7.4,0,13.4,6,13.4,13.4v90.4c0.2,7.4-5.6,13.6-13,13.9C374.7,454.1,374.6,454.1,374.5,454.1z"/>
							<path class="st4" d="M415,408.4h-40.5c-7.4,0-13.4-6-13.4-13.5c0-7.4,6-13.4,13.4-13.4H415c7.4,0,13.4,6,13.4,13.5         C428.4,402.4,422.4,408.4,415,408.4z"/>
							<path class="st1" d="M431.5,363.3h-57.1c-7.5,0-13.5-6-13.5-13.5s6-13.5,13.5-13.5h57.1c7.4,0,13.5,6,13.4,13.5         C445,357.2,439,363.3,431.5,363.3L431.5,363.3z"/>
							<path class="st5" d="M431.5,453.3h-57.1c-7.4,0-13.4-6-13.4-13.5c0-7.4,6-13.4,13.4-13.4h57.1c7.4,0,13.5,6,13.5,13.4         C445,447.3,439,453.3,431.5,453.3C431.5,453.3,431.5,453.3,431.5,453.3z"/>
						</g>
					</g>
				</g>
				<g transform="translate(146.15549035376233, 0)">
					<g>
						<g>
							<rect x="416.4" y="336.2" class="st0" width="84" height="117.6"/>
							<path class="st1" d="M429.9,454c-7.4,0-13.4-6-13.5-13.4c0-0.1,0-0.3,0-0.4v-90.3c0-7.4,6-13.4,13.4-13.4         c7.4,0,13.4,6,13.4,13.4v90.3c0.2,7.4-5.6,13.6-13,13.9C430.2,454,430,454,429.9,454z"/>
							<path class="st3" d="M486.9,453.3h-57.1c-7.4,0-13.4-6-13.4-13.5c0-7.4,6-13.4,13.4-13.4h57.1c7.4,0,13.4,6,13.5,13.4         C500.4,447.3,494.4,453.3,486.9,453.3C487,453.3,486.9,453.3,486.9,453.3z"/>
						</g>
					</g>
				</g>
				<g transform="translate(174.70057922087565, 0)">
					<g>
						<g>
							<rect x="471.8" y="336.2" class="st0" width="84" height="117.6"/>
							<path class="st2" d="M485.3,454.1c-7.4,0-13.5-6-13.5-13.4c0-0.1,0-0.3,0-0.4v-90.4c0-7.4,6-13.5,13.5-13.4         c7.4,0,13.4,6,13.4,13.4v90.4c0.2,7.4-5.6,13.6-13,13.9C485.6,454.1,485.4,454.1,485.3,454.1z"/>
							<path class="st4" d="M525.8,408.4h-40.5c-7.4,0-13.4-6-13.4-13.5c0-7.4,6-13.4,13.4-13.4h40.5c7.4,0,13.4,6,13.4,13.5         C539.3,402.4,533.2,408.4,525.8,408.4z"/>
							<path class="st1" d="M542.4,363.3h-57.1c-7.5,0-13.5-6-13.5-13.5s6-13.5,13.5-13.5h57.1c7.4,0,13.5,6,13.4,13.5         C555.8,357.2,549.8,363.3,542.4,363.3L542.4,363.3z"/>
							<path class="st5" d="M542.4,453.3h-57.1c-7.4,0-13.4-6-13.4-13.5c0-7.4,6-13.4,13.4-13.4h57.1c7.4,0,13.5,6,13.5,13.4         C555.8,447.3,549.8,453.3,542.4,453.3C542.4,453.3,542.4,453.3,542.4,453.3z"/>
						</g>
					</g>
				</g>
			</g>
		</g>
	</g>
</g>
</svg>